# xmcd CD database file
#
# Track frame offsets:
#	150
#	21147
#	49987
#	65477
#	84962
#	109522
#	127872
#	143530
#
# Disc length: 2196 seconds
#
# Revision: 0
# Processed by: cddbd v1.5.1PL0 Copyright (c) Steve Scherf et al.
# Submitted via: CDex 1.51
#
DISCID=5d089208
DTITLE=笠原留美 - RUMING
DYEAR=1995
DGENRE=seiyu(J)
TTITLE0=KIRAKIRA
TTITLE1=ノンフィクション
TTITLE2=目覚まし時計止めたら
TTITLE3=素敵なランデブー
TTITLE4=17歳
TTITLE5=Sing a song forever
TTITLE6=MY DEAR TOWN
TTITLE7=最初のいーっぽ
EXTD=YEAR: 1995
EXTT0=
EXTT1=
EXTT2=
EXTT3=
EXTT4=
EXTT5=
EXTT6=
EXTT7=
PLAYORDER=
